<?xml version="1.0" standalone="no"?><!DOCTYPE svg PUBLIC "-//W3C//DTD SVG 1.1//EN" "http://www.w3.org/Graphics/SVG/1.1/DTD/svg11.dtd"><svg t="1625816519117" class="icon" viewBox="0 0 1024 1024" version="1.1" xmlns="http://www.w3.org/2000/svg" p-id="45804" xmlns:xlink="http://www.w3.org/1999/xlink" width="200" height="200"><defs><style type="text/css"></style></defs><path d="M512 512m-512 0a512 512 0 1 0 1024 0 512 512 0 1 0-1024 0Z" fill="#BA67FD" p-id="45805"></path><path d="M573.80864 820.34688h-123.61728c-116.1216 0-208.0768 0-208.0768-58.90048v-12.288c0-113.0496 93.30688-205.0048 208.0768-205.0048h123.61728c114.688 0 208.0768 91.9552 208.0768 205.0048v12.288c0 58.90048-96.37888 58.90048-208.0768 58.90048zM506.0608 528.384c-90.9312 0-164.82304-72.86784-164.82304-162.44736s73.728-162.44736 164.82304-162.44736 164.82304 72.86784 164.82304 162.44736S596.95104 528.384 506.0608 528.384z" fill="#FFFFFF" p-id="45806"></path></svg>